# xmcd
#
# Track frame offsets: 
#        150
#        10072
#        26437
#        36455
#        52351
#        68278
#        79545
#        91505
#        106045
#        118698
#        130030
#        156428
#        164846
#        180771
#        199603
#        212779
#        223189
#        238941
#        247978
#        259138
#
# Disc length: 3630 seconds
#
# Revision: 0
# Processed by: cddbd v1.5.2PL0 Copyright (c) Steve Scherf et al.
# Submitted via: ExactAudioCopy v0.99pb5
#
DISCID=0c0e2c14
DTITLE=Boxcar Willie - Trucker's Greatest Hits
DYEAR=2008
DGENRE=Country
TTITLE0=King Of The Road
TTITLE1=Freightline Fever
TTITLE2=Move It On Over
TTITLE3=Red River Valley
TTITLE4=You rCheatin' Heart
TTITLE5=Rolling In My Sweet Baby's Arms
TTITLE6=Dixie
TTITLE7=Truck Driving Man
TTITLE8=Peace In The Valley
TTITLE9=Yankee Doodle
TTITLE10=Teddy Bear
TTITLE11=Hey Good Lookin'
TTITLE12=Phantom 3009
TTITLE13=Convoy
TTITLE14=San Antonio Rose
TTITLE15=Heaven
TTITLE16=Mule Train
TTITLE17=Divorce Me C.O.D.
TTITLE18=Six Days On The Road
TTITLE19=North To Alaska
EXTD=
EXTT0=
EXTT1=
EXTT2=
EXTT3=
EXTT4=
EXTT5=
EXTT6=
EXTT7=
EXTT8=
EXTT9=
EXTT10=
EXTT11=
EXTT12=
EXTT13=
EXTT14=
EXTT15=
EXTT16=
EXTT17=
EXTT18=
EXTT19=
PLAYORDER=
